<?xml version="1.0" encoding="UTF-8"?>
<!-- Created with Inkscape (http://www.inkscape.org/) -->
<svg id="svg2" width="1500" height="1e3" version="1.0" xmlns="http://www.w3.org/2000/svg" xmlns:cc="http://creativecommons.org/ns#" xmlns:dc="http://purl.org/dc/elements/1.1/" xmlns:rdf="http://www.w3.org/1999/02/22-rdf-syntax-ns#" xmlns:xlink="http://www.w3.org/1999/xlink">
 <metadata id="metadata7">
  <rdf:RDF>
   <cc:Work rdf:about="">
    <dc:format>image/svg+xml</dc:format>
    <dc:type rdf:resource="http://purl.org/dc/dcmitype/StillImage"/>
    <dc:date>2006-06-14</dc:date>
    <dc:creator>
     <cc:Agent>
      <dc:title>Valadrem (http://valadrem.blogspot.com)</dc:title>
     </cc:Agent>
    </dc:creator>
    <dc:description>Escudo de la Ciudad de Madrid

Madrid Coat</dc:description>
    <dc:source>http://commons.wikimedia.org/wiki/Image:Escudo_de_Madrid.svg</dc:source>
    <dc:language>es</dc:language>
    <cc:license rdf:resource="http://web.resource.org/cc/PublicDomain"/>
    <dc:relation>http://commons.wikimedia.org/wiki/Image:Escudo_de_Madrid.svg</dc:relation>
   </cc:Work>
   <cc:License rdf:about="http://web.resource.org/cc/PublicDomain">
    <cc:permits rdf:resource="http://web.resource.org/cc/Reproduction"/>
    <cc:permits rdf:resource="http://web.resource.org/cc/Distribution"/>
    <cc:permits rdf:resource="http://web.resource.org/cc/DerivativeWorks"/>
   </cc:License>
  </rdf:RDF>
 </metadata>
 <g id="layer1" transform="translate(234.322 529.661)">
  <rect id="rect2003" x="-234.322" y="-529.661" width="1500" height="1e3" style="fill-rule:evenodd;fill:#9b0025;stroke-width:2"/>
  <g id="g11983" transform="matrix(1.36561 0 0 1.357392 325.6459 -391.2141)">
   <path id="path4448" d="m40.64785 193.6936v153.899c0 39.73715-3.58699 85.44259 97.08952 85.44259 99.77798 0 97.22711-47.77615 97.22711-86.9395v-152.4673z" style="fill-rule:evenodd;fill:#ffffff;stroke-width:35;stroke:#204080"/>
   <path id="path11106" d="m195.4366 378.0206c-0.0775-1.76957 0.58301-3.79164-0.11302-5.34363-1.25528-2.799-3.36913-5.27342-5.05369-7.91012 3.20315-2.18171 6.7802-5.40612 6.04437-9.71068-0.11501-3.70171-2.7166-6.52994-4.28508-9.70584-3.13234-5.50862-7.2789-10.73944-9.39703-16.52584-1.07078-2.92519 0.73159-6.60472-0.0849-9.62687-1.0755-3.9807-2.77992-8.52809-5.08181-11.48928-0.74583-0.95944 2.36315-3.70242 2.63953-5.05439 1.77179-2.97005 2.25578-7.43799-0.67217-10.1316-1.66155-1.33644-1.89811-3.46759-4.3504-1.3007-1.00132 1.44383-1.8105 1.59644-2.32498-0.23134-0.40553-1.42402-1.31532-2.06412-2.79373-1.8203-1.49361-0.5164-2.13749 0.279-2.38239 1.69034-2.32128-1.79712-4.64255-4.04352-8.53631-5.84064-4.37384-0.57512-6.38566 3.96312-5.20385 8.27214-0.1957 3.07021 1.90582 5.35876 3.26326 7.88378 0.39282 2.59043-0.16655 5.42751 0.35916 8.00753 0.48006 2.356 1.62624 3.94616 3.37855 6.61222 1.74435 3.30082-4.83969 1.9005-7.67599-2.90211-0.46243-1.96851-0.5749-4.14869-1.25005-5.98855-1.08149-0.72778-2.03229-1.8334-3.18982-2.34133-1.89596-0.6135-5.30811 1.30413-5.41006 2.51881-0.13392 7.09767 1.73216 14.19534 1.59824 21.29301 2.09664 3.51935 4.295 7.64687 8.28992 10.55805 0.93045 0.67803 3.01737 9e-3 3.1708 1.47545 1.0397 3.32706 2.07941 6.65412 3.11912 9.98118 1.13931 4.90358 2.73614 6.19487 4.58674 8.878 1.26376 1.19334 2.53786 2.26304-0.0659 3.22448-2.36865 3.2538 7.68743 8.7333 8.05896 10.13687 0.30239 1.14235-2.54592 3.81888-3.59424 5.16672 8.83583 0.44928 18.12094-0.22464 26.95677 0.22464z" style="fill-rule:evenodd;fill:#000000"/>
   <path id="path3972" d="m137.9475 110.9478 3.0982 0.56973c-0.49914 1.25289-0.6025 2.62175-0.6025 4.06371 0 6.42582 5.52081 11.65421 12.31721 11.65421 5.45526 0 14.10131-3.37803 15.69705-8.04425 0.17899 0.12352 1.17475-4.21497 1.68902-4.16204 0.43107 0.0454-1.6143 4.24271-1.45548 4.16204l0.27317 8.3997c-3.16375 2.88141-11.46444 4.65865-16.20376 4.65865-6.2065 0-11.74244-3.04022-14.88098-7.62829-3.1335 4.58807-8.6644 7.62829-14.86081 7.62829-4.73681 0-11.04758-1.77724-14.21386-4.65865l0.2757-8.3997c0.1689 0.0807-1.87648-4.11666-1.44791-4.16204 0.50922-0.0529 1.51255 4.28556 1.68144 4.16204 1.60582 4.66622 8.24432 8.04425 13.71724 8.04425 6.79387 0 12.29703-5.22839 12.29703-11.65421 0-1.44196-0.0857-2.81082-0.59241-4.06371l3.21165-0.56973" style="fill:#ffcc00;stroke-linejoin:round;stroke-width:.387757;stroke:#000000"/>
   <path id="path3994" d="m21.37333 144.6706c-2.92848 0-5.138661 0.26992-5.128222-3.33768 0.01044-3.6076 2.585838-3.33768 5.128222-3.33768h232.8552c2.87896 0 5.17439-0.2317 5.12822 3.33768-0.0461 3.56789-2.03822 3.33768-5.12822 3.33768z" style="fill:#ffcc00;stroke-linejoin:round;stroke-width:.387757;stroke:#000000"/>
   <path id="path3964" d="m137.7408 82.37576c2.60914 2.36462 4.61832 5.901469 4.87293 9.539153 0 0 0.46889-0.65796 2.28143-1.31592 1.81002-0.657959 3.19905-0.400825 3.19905-0.400825s-0.96551 2.641923-1.38903 3.564577c-0.42099 0.925174-0.96551 3.824233-2.09488 6.322461-1.0966 2.51588-2.6268 4.40909-2.6268 4.40909-0.99576-1.13694-2.49571-1.87556-4.18724-1.87556-1.68146 0-3.1814 0.73862-4.17716 1.87556 0 0-1.5302-1.89321-2.63688-4.40909-1.11929-2.498228-1.67137-5.397287-2.0848-6.322461-0.421-0.922654-1.39911-3.564577-1.39911-3.564577s1.39911-0.257134 3.20156 0.400825c1.81002 0.65796 2.29152 1.31592 2.29152 1.31592 0.25209-3.637684 2.15034-7.174533 4.74941-9.539153zm-4.04607 28.7057c-0.8067-0.89745-1.32349-2.06211-1.32349-3.32509 0-1.2529 0.47897-2.42512 1.28567-3.30745 0 0-2.23353-1.67137-4.74941-2.80831-1.90581-0.87223-5.44518-1.47473-6.50649-1.671355-1.06887-0.204199-3.19148-0.605022-3.19148-0.605022s0.0857 0.506704 0.49662 1.671367c0.49914 1.41423 0.99576 2.32176 0.99576 2.32176-3.67801 0.22185-7.14428 2.05203-9.54671 4.42674 2.40243 2.35454 5.85861 4.14186 9.54671 4.38387 0 0-0.49662 0.89745-0.99576 2.31924-0.4109 1.14702-0.49662 1.66129-0.49662 1.66129s2.12261-0.39074 3.19148-0.58486c1.06131-0.21427 4.60068-0.80921 6.50649-1.689 2.51588-1.13946 4.78723-2.7831 4.78723-2.7831zm8.17785 0c0.8067-0.89745 1.32096-2.06211 1.32096-3.32509 0-1.2529-0.47645-2.42512-1.28567-3.30745 0 0 2.23606-1.67137 4.75193-2.80831 1.91338-0.87223 5.45275-1.47473 6.51405-1.671355 1.05123-0.204199 3.17132-0.605022 3.17132-0.605022s-0.0731 0.506704-0.49662 1.671367c-0.49914 1.41423-0.98568 2.32176-0.98568 2.32176 3.68054 0.22185 7.14176 2.05203 9.53663 4.42674-2.39487 2.35454-5.84853 4.14186-9.53663 4.38387 0 0 0.48654 0.89745 0.98568 2.31924 0.41344 1.14702 0.49662 1.66129 0.49662 1.66129s-2.11001-0.39074-3.17132-0.58486c-1.0613-0.21427-4.60067-0.80921-6.51405-1.689-2.51587-1.13946-4.78722-2.7831-4.78722-2.7831z" style="fill:#ffcc00;stroke-linejoin:round;stroke-width:.387757;stroke:#000000"/>
   <path id="path11928" d="m132.3712 107.7564c0-2.8436 2.43017-5.13763 5.42502-5.13763 2.99484 0 5.4351 2.29403 5.4351 5.13763 0 2.84611-2.43017 5.14771-5.4351 5.14771-2.99485 0-5.42502-2.3016-5.42502-5.14771z" style="fill:#ffffff;stroke-linejoin:round;stroke-width:.387757;stroke:#000000"/>
   <use id="use4002" transform="translate(60)" width="275" height="500" xlink:href="#path3964"/>
   <use id="use4004" transform="translate(-60)" width="275" height="500" xlink:href="#path3964"/>
   <use id="use4006" transform="translate(-60)" width="275" height="500" xlink:href="#path3972"/>
   <use id="use4008" transform="translate(-60)" width="275" height="500" xlink:href="#path11928"/>
   <use id="use4010" transform="translate(-28.99231,10.16604)" width="275" height="500" xlink:href="#path11928"/>
   <use id="use4017" transform="translate(60)" width="275" height="500" xlink:href="#path3972"/>
   <use id="use4015" transform="translate(30.99969,10)" width="275" height="500" xlink:href="#path11928"/>
   <use id="use4019" transform="translate(60)" width="275" height="500" xlink:href="#path11928"/>
   <g id="g4041">
    <path id="path3952" d="m253.1416 110.461c-0.34137-0.90197-0.41602-2.02799-0.16217-3.20035 0.55828-2.54112 2.49672-4.36596 4.33132-4.06012 0.23466 0.0468 0.52192 0.12974 0.73214 0.23618 0 0-0.957-5.820581 0.59441-9.167321 1.54126-3.364341 6.20269-6.336898 6.20269-6.336898-2.41484-3.189696-6.97995-3.790262-10.34853-1.240001-1.97572 1.495766-3.22458 3.734459-3.27455 5.957143l-2.07478-1.796642s-2.30153 2.589818-1.2008 6.628948c1.11684 4.039561 5.85976 7.506141 5.85976 7.506141s-2.13256-1.41774-4.12189-1.93212c-1.97569-0.50888-5.63 0.0602-7.46703 0.44865-1.83245 0.39448-3.937 0.4922-3.937 0.4922s0.20295 0.39337 0.80043 1.29115c0.7253 1.06663 1.28549 1.63534 1.28549 1.63534-2.73072 1.55513-5.32313 4.15332-6.91729 6.74196 2.40269 1.16896 5.59648 1.56193 8.69868 0.652 0 0-0.32657 1.37287-0.52552 2.75978-0.15205 1.16485-0.12523 1.63464-0.12523 1.63464s1.88096-1.04459 2.82646-1.5707c0.92936-0.52653 4.08905-2.21672 5.68814-3.60439 1.18276-1.01876 2.4204-2.27827 3.13527-3.07559z" style="fill:#ffcc00;stroke-linejoin:round;stroke-width:.387757;stroke:#000000"/>
    <path id="path4025" d="m257.9475 110.9478 3.0982 0.56973c-0.49914 1.25289 1.2405 7.38533-3.16627 13.10373-4.38 5.68365-8.6644 7.62829-14.86081 7.62829-4.73681 0-11.04758-1.77724-14.21386-4.65865l0.2757-8.3997c0.1689 0.0807-1.87648-4.11666-1.44791-4.16204 0.50922-0.0529 1.51255 4.28556 1.68144 4.16204 1.60582 4.66622 8.24432 8.04425 13.71724 8.04425 6.79387 0 12.29703-5.22839 12.29703-11.65421 0-1.44196-0.0857-2.81082-0.59241-4.06371l3.21165-0.56973" style="fill:#ffcc00;stroke-linejoin:round;stroke-width:.387757;stroke:#000000"/>
    <use id="use4027" transform="translate(91.09969,10)" width="275" height="500" xlink:href="#path11928"/>
    <use id="use4021" transform="translate(60)" width="275" height="500" xlink:href="#use4019"/>
   </g>
   <use id="use4047" transform="matrix(-1,0,0,1,278.3109,0)" width="275" height="500" xlink:href="#g4041"/>
   <path id="path4049" d="m21.37333 170.6706c-2.92848 0-5.138661 0.26992-5.128222-3.33768 0.01044-3.6076 2.585838-3.33768 5.128222-3.33768h232.8552c2.87896 0 5.17439-0.2317 5.12822 3.33768-0.0461 3.56789-2.03822 3.33768-5.12822 3.33768z" style="fill:#ffcc00;stroke-linejoin:round;stroke-width:.387757;stroke:#000000"/>
   <path id="use4924" d="m105.0379 154.3278c0-2.8436 2.43017-5.13763 5.42502-5.13763 2.99484 0 5.4351 2.29403 5.4351 5.13763 0 2.84611-2.43017 5.14771-5.4351 5.14771-2.99485 0-5.42502-2.3016-5.42502-5.14771z" style="fill:#204080;stroke-linejoin:round;stroke-width:.387757;stroke:#000000"/>
   <use id="use4928" transform="translate(56.66666)" width="275" height="500" xlink:href="#use4924"/>
   <use id="use4930" transform="translate(113.3333)" width="275" height="500" xlink:href="#use4924"/>
   <use id="use4932" transform="translate(-56.66667)" width="275" height="500" xlink:href="#use4924"/>
   <path id="path4934" d="m119.9236 154.3278c0-2.8436 8.44848-5.13763 18.86006-5.13763 10.41156 0 18.89511 2.29403 18.89511 5.13763 0 2.84611-8.44848 5.14771-18.89511 5.14771-10.41158 0-18.86006-2.3016-18.86006-5.14771z" style="fill:#40c040;stroke-linejoin:round;stroke-width:.387757;stroke:#000000"/>
   <path id="path4936" d="m233.1648 154.3278c0-2.8436 5.86114-5.13763 13.08417-5.13763 7.22302 0 13.10848 2.29403 13.10848 5.13763 0 2.84611-5.86113 5.14771-13.10848 5.14771-7.22303 0-13.08417-2.3016-13.08417-5.14771z" style="fill:#40c040;stroke-linejoin:round;stroke-width:.387757;stroke:#000000"/>
   <use id="use4938" transform="translate(-216.9197)" width="275" height="500" xlink:href="#path4936"/>
   <path id="rect4940" d="m82.13458 148.3446 18.44481 5.58154-18.4448 6.39496-18.44481-5.58154z" style="fill-rule:evenodd;fill:#e06040;stroke-width:.388;stroke:#204080"/>
   <use id="use5816" transform="translate(113.3333)" width="275" height="500" xlink:href="#rect4940"/>
   <path id="path1594" d="m150.0715 201.9364h-8.18014l-4.09008 7.08422-4.09007-7.08422h-8.18014l5.186-7.08422-5.186-7.08421h8.18014l4.09007-7.08422 4.09008 7.08422h8.18014l-5.186 7.08421z" style="fill-rule:evenodd;fill:#ffffff"/>
   <use id="use7564" transform="translate(-98)" width="275" height="500" xlink:href="#path1594"/>
   <use id="use7566" transform="translate(98)" width="275" height="500" xlink:href="#path1594"/>
   <use id="use7568" transform="translate(-98,92)" width="275" height="500" xlink:href="#path1594"/>
   <use id="use7570" transform="translate(-98,186)" width="275" height="500" xlink:href="#path1594"/>
   <use id="use7572" transform="translate(98,92)" width="275" height="500" xlink:href="#path1594"/>
   <use id="use7574" transform="translate(98,186)" width="275" height="500" xlink:href="#path1594"/>
   <path id="rect9354" d="m131.8374 282.324h15.2755v86.03703l8 12.35519h-31.2755l8-12.35519z" style="fill-rule:evenodd;fill:#c0a040"/>
   <path id="path7584" d="m89.3726 252.2444c0-17.74914 22.4229-32.06798 50.056-32.06798 27.63306 0 50.14903 14.31884 50.14903 32.06798 0 17.76482-22.42289 32.13091-50.14903 32.13091-27.6331 0-50.056-14.36609-50.056-32.13091z" style="fill:#40c040"/>
   <path id="use8459" d="m95.66042 253.1758c0-2.8436 2.43017-5.13763 5.425016-5.13763 2.99484 0 5.4351 2.29403 5.4351 5.13763 0 2.84611-2.43017 5.14771-5.4351 5.14771-2.994846 0-5.425016-2.3016-5.425016-5.14771z" style="fill:#e06040"/>
   <use id="use9336" transform="translate(25.27198,-1.123199)" width="275" height="500" xlink:href="#use8459"/>
   <use id="use9338" transform="translate(13.14143,6.065274)" width="275" height="500" xlink:href="#use8459"/>
   <use id="use9340" transform="translate(19.99294,19.43134)" width="275" height="500" xlink:href="#use8459"/>
   <use id="use9342" transform="translate(32.01117,11.00735)" width="275" height="500" xlink:href="#use8459"/>
   <use id="use9344" transform="translate(38.52572,21.79006)" width="275" height="500" xlink:href="#use8459"/>
   <use id="use9346" transform="translate(48.97147,9.322551)" width="275" height="500" xlink:href="#use8459"/>
   <use id="use9348" transform="translate(60.65274,1.460159)" width="275" height="500" xlink:href="#use8459"/>
   <use id="use9350" transform="translate(76.37753,3.144957)" width="275" height="500" xlink:href="#use8459"/>
   <use id="use9352" transform="translate(63.7977,15.72479)" width="275" height="500" xlink:href="#use8459"/>
   <path id="path10230" d="m59.29016 377.573c0 16.37767 11.98868 38.11868 78.2905 38.11868 66.52639 0 78.29049-21.9775 78.29049-38.11868z" style="fill-rule:evenodd;fill:#40c040"/>
  </g>
 </g>
</svg>
